<mxfile host="app.diagrams.net" modified="2024-07-18T08:50:22.310Z" agent="Mozilla/5.0 (Macintosh; Intel Mac OS X 10_15_7) AppleWebKit/605.1.15 (KHTML, like Gecko) Version/16.1 Safari/605.1.15" version="24.7.1" etag="e8mdiiyCwBarwiXhl9Cu" type="github">
  <diagram name="Page-1" id="JnWFN2CAIKHsG2NQ7ScS">
    <mxGraphModel>
      <root>
        <mxCell id="0" />
        <mxCell id="1" parent="0" />
      </root>
    </mxGraphModel>
  </diagram>
</mxfile>
